# xmcd
#
# Track frame offsets:
#	150
#	14587
#	25247
#	37184
#	47313
#	59693
#	70351
#	80940
#	91876
#	104042
#	114555
#	125526
#	136462
#	147061
#	157568
#	167315
#
# Disc length: 2413 seconds
#
# Revision: 0
# Processed by: cddbd v1.4PL0 Copyright (c) Steve Scherf et al.
# Submitted via: EasyCDDAExtractor 4.6.0.1
#
DISCID=db096b10
DTITLE=Jesse Al Tuscan and The Lumberjacks - 88 AM
DYEAR=2000
DGENRE=Rock and Roll
TTITLE0=88 AM
TTITLE1=Bear-Hug
TTITLE2=Blue Black Hair
TTITLE3=Rockin Motorcyckle
TTITLE4=You´re Tempting Me
TTITLE5=Mud On My Boots
TTITLE6=Jenny Barn
TTITLE7=Please Just Call Me Baby
TTITLE8=I Got A Strange Kind Of Feeling
TTITLE9=Set Him Free
TTITLE10=If You Love My Woman
TTITLE11=Mr. Misery
TTITLE12=Your´re Out Of My Mind
TTITLE13=Moonshine Boy
TTITLE14=Drugstore Mack
TTITLE15=Your´re The One Who´s Gone
EXTD=
EXTT0=
EXTT1=
EXTT2=
EXTT3=
EXTT4=
EXTT5=
EXTT6=
EXTT7=
EXTT8=
EXTT9=
EXTT10=
EXTT11=
EXTT12=
EXTT13=
EXTT14=
EXTT15=
PLAYORDER=
